<?xml version="1.0" standalone="no"?>
<!DOCTYPE svg PUBLIC "-//W3C//DTD SVG 1.1//EN" "http://www.w3.org/Graphics/SVG/1.1/DTD/svg11.dtd" >
<svg xmlns="http://www.w3.org/2000/svg">
<metadata></metadata>
<defs>
<font id="helveticaneuecyrmedium" horiz-adv-x="1138" >
<font-face units-per-em="2048" ascent="1638" descent="-410" />
<missing-glyph horiz-adv-x="569" />
<glyph unicode=" "  horiz-adv-x="569" />
<glyph unicode="&#x09;" horiz-adv-x="569" />
<glyph unicode="&#xa0;" horiz-adv-x="569" />
<glyph unicode="!" horiz-adv-x="569" d="M152 0v260h266v-260h-266zM160 1038v420h250v-418l-66 -637h-121z" />
<glyph unicode="&#x22;" horiz-adv-x="909" d="M174 1425h207l-37 -596h-133zM530 1425h205l-35 -596h-135z" />
<glyph unicode="#" d="M31 399v164h213l55 297h-182v164h213l76 401h192l-74 -401h226l73 401h193l-74 -401h182v-164h-213l-55 -297h182v-164h-213l-73 -399h-193l74 399h-225l-74 -399h-193l74 399h-184zM438 563h226l55 297h-225z" />
<glyph unicode="$" d="M27 428v18h233q-2 -10 -2 -22q0 -125 65.5 -194t190.5 -80v499q-91 13 -167.5 41t-143 74.5t-104.5 120.5t-38 168q0 99 36 176t100 125t143 75.5t174 36.5v148h102v-148q205 -4 325 -106.5t120 -272.5v-30h-221v14q0 107 -57 157.5t-167 61.5v-450q80 -13 146.5 -32.5 t131.5 -54t109 -80.5t71.5 -114.5t27.5 -152.5q0 -192 -135 -313.5t-351 -121.5v-176h-102v176q-215 0 -351 119.5t-136 337.5zM283 1075q0 -51 18 -88.5t54 -61.5t71.5 -37t87.5 -26v426q-107 -8 -169 -64.5t-62 -148.5zM616 147q114 3 184 71t70 175q0 92 -62.5 150 t-191.5 84v-480z" />
<glyph unicode="%" horiz-adv-x="2048" d="M178 1049q0 192 88.5 296.5t251.5 104.5q161 0 245.5 -99.5t84.5 -289.5q0 -204 -85.5 -311t-248.5 -107t-249.5 104t-86.5 302zM358 1038q0 -135 38 -199.5t116 -64.5q35 0 62 13t43 37t27 51t16 62.5t6.5 62t1.5 59.5q0 258 -154 258q-156 0 -156 -279zM530 -63 l811 1548h156l-807 -1548h-160zM1210 377q0 192 88.5 296.5t251.5 104.5q161 0 245.5 -99.5t84.5 -289.5q0 -204 -85.5 -311t-248.5 -107t-249.5 104t-86.5 302zM1391 367q0 -135 37.5 -200t115.5 -65q35 0 62 13t43 37t27 51t16 62.5t6.5 62t1.5 59.5q0 258 -154 258 q-155 0 -155 -278z" />
<glyph unicode="&#x26;" horiz-adv-x="1327" d="M68 391q0 143 92 254t239 180q-77 94 -111 170t-34 152q0 141 101 232t259 91q154 0 253.5 -91t99.5 -232q0 -234 -258 -373l223 -276q37 77 51 198h205q-8 -95 -38.5 -191.5t-80.5 -166.5l287 -338h-287l-135 164q-165 -195 -410 -195q-126 0 -228.5 48.5t-165 146 t-62.5 227.5zM297 397q0 -97 70 -165t170 -68q153 0 272 158l-289 354q-48 -28 -81 -51t-69 -58t-54.5 -77.5t-18.5 -92.5zM463 1153q0 -37 23.5 -84.5t41.5 -71t56 -71.5l8 -11q90 54 130 107.5t40 118.5q0 68 -42 111.5t-106 43.5q-65 0 -108 -41t-43 -102z" />
<glyph unicode="'" horiz-adv-x="569" d="M182 1425h205l-39 -596h-127z" />
<glyph unicode="(" horiz-adv-x="569" d="M102 526q0 244 74 488.5t221 453.5h187q-126 -237 -187 -453t-61 -485q0 -473 250 -921h-189q-98 161 -157 286t-98.5 288.5t-39.5 342.5z" />
<glyph unicode=")" horiz-adv-x="569" d="M-18 -391q249 447 249 921q0 270 -60.5 486t-186.5 452h186q147 -209 221 -453.5t74 -488.5q0 -179 -39.5 -342.5t-98.5 -288.5t-157 -286h-188z" />
<glyph unicode="*" horiz-adv-x="757" d="M37 1192l45 131l227 -86l-2 242h142l-5 -242l228 86l49 -131l-232 -78l142 -192l-109 -82l-145 202l-141 -202l-113 82l141 192z" />
<glyph unicode="+" horiz-adv-x="1228" d="M86 430v195h424v430h209v-430h426v-195h-426v-430h-209v430h-424z" />
<glyph unicode="," horiz-adv-x="569" d="M145 0v276h279v-208q0 -160 -62 -257.5t-217 -132.5v123q128 39 134 199h-134z" />
<glyph unicode="-" horiz-adv-x="796" d="M98 455v217h600v-217h-600z" />
<glyph unicode="." horiz-adv-x="569" d="M145 0v276h279v-276h-279z" />
<glyph unicode="/" horiz-adv-x="720" d="M-37 -35l592 1528h203l-588 -1528h-207z" />
<glyph unicode="0" d="M74 707q0 363 125 551t366 188q500 0 500 -744q0 -359 -125 -545t-367 -186q-248 0 -373.5 185.5t-125.5 550.5zM309 692q0 -276 62.5 -401t199.5 -125q41 0 76 13t60 33t44.5 53.5t32.5 64t22 75.5t13 77.5t6.5 80t3 73t0.5 66.5v4q0 44 -0.5 69t-2.5 74.5t-6.5 81.5 t-13.5 78t-22 76t-33 64t-45.5 54t-61 33t-77.5 13q-52 0 -93.5 -20t-68 -49.5t-45.5 -79t-29 -92t-15 -107t-6 -105.5t-1 -104z" />
<glyph unicode="1" d="M166 991v172q54 0 99.5 4.5t101.5 22t97 46t74.5 81.5t45.5 125h188v-1442h-250v991h-356z" />
<glyph unicode="2" d="M47 0q2 54 10 102.5t19.5 89t32 79t40 69t51 63.5t57.5 57t67 54.5t72 52.5t79 54q13 9 53.5 35.5t57 38t51.5 37.5t51 43.5t40 46t35 54.5t19.5 60t8.5 70q0 112 -62 176.5t-170 64.5q-61 0 -106 -20t-71.5 -50.5t-42.5 -78t-21.5 -91t-6.5 -100.5h-227v37 q0 231 130 367.5t351 136.5q209 0 336 -117.5t127 -312.5q0 -76 -22 -142.5t-52.5 -112.5t-87 -96.5t-99 -81t-115.5 -78.5q-11 -7 -17 -11q-53 -35 -87.5 -59t-84 -64t-84 -82t-51.5 -84h698v-207h-979z" />
<glyph unicode="3" d="M55 440v31h226q9 -301 278 -301q119 0 188.5 69t69.5 187q0 64 -23 111.5t-63.5 75t-90.5 40.5t-110 13q-38 0 -73 -2v176h20q49 0 86.5 3.5t78.5 16.5t68 34.5t44.5 60.5t17.5 92q0 94 -59.5 151t-159.5 57q-113 0 -174.5 -72t-65.5 -210h-223q6 221 130.5 348 t336.5 127q198 0 321 -106.5t123 -278.5q0 -104 -54 -183t-146 -110q122 -31 191 -120t69 -218q0 -205 -141.5 -334t-366.5 -129q-224 0 -361 129.5t-137 341.5z" />
<glyph unicode="4" d="M51 340v231l615 875h221v-909h182v-197h-182v-340h-225l-3 340h-608zM244 537h420v620z" />
<glyph unicode="5" d="M57 408h232q9 -110 80 -176t180 -66q127 0 196.5 80.5t69.5 228.5q0 142 -71 221.5t-199 79.5q-80 0 -137.5 -30.5t-102.5 -98.5l-205 6l138 772h739v-202h-571l-66 -369q97 102 270 102q200 0 322.5 -129t122.5 -340q0 -227 -143 -370.5t-369 -143.5 q-212 0 -344.5 118.5t-141.5 316.5z" />
<glyph unicode="6" d="M74 690q0 358 141 559t391 201q183 0 297.5 -100.5t134.5 -280.5h-225q-38 197 -217 197q-51 0 -93.5 -20t-70.5 -45t-51 -75.5t-34.5 -82t-22.5 -96.5t-13.5 -86.5t-8.5 -82.5q-1 -5 -1 -8q118 176 328 176q198 0 320 -130.5t122 -342.5q0 -220 -135.5 -361t-347.5 -141 q-248 0 -381 186t-133 533zM332 471q0 -138 70 -221.5t186 -83.5q113 0 181.5 82t68.5 217q0 134 -69.5 214.5t-186.5 80.5q-114 0 -182 -78.5t-68 -210.5z" />
<glyph unicode="7" d="M76 1210v215h977v-196q-223 -223 -367 -564t-156 -665h-256q5 191 81 423.5t200.5 443.5t265.5 343h-745z" />
<glyph unicode="8" d="M66 414q0 133 68.5 226.5t193.5 131.5q-97 34 -151 113t-54 186q0 169 126 275t326 106q193 0 316 -105.5t123 -269.5q0 -107 -52.5 -185.5t-150.5 -119.5q130 -45 196 -127t66 -219q0 -203 -139.5 -327t-366.5 -124q-224 0 -362.5 121.5t-138.5 317.5zM301 426 q0 -123 74 -194.5t200 -71.5q123 0 193 68.5t70 191.5q0 120 -74 190t-197 70q-119 0 -192.5 -70t-73.5 -184zM342 1057q0 -94 63 -151.5t166 -57.5t164.5 56.5t61.5 152.5q0 95 -61 151t-163 56q-106 0 -168.5 -56t-62.5 -151z" />
<glyph unicode="9" d="M61 948q0 220 138 362t350 142q117 0 208 -43t146.5 -111.5t91 -163.5t49 -189.5t13.5 -199.5q0 -91 -10.5 -178t-33.5 -176t-64.5 -163t-98 -132.5t-139 -91.5t-183.5 -33q-181 0 -305 109t-133 276h225q8 -88 68 -143t158 -55q260 0 282 501q-60 -93 -136 -137.5 t-183 -44.5q-193 0 -318 132.5t-125 338.5zM297 954q0 -132 67 -210t181 -78q113 0 182.5 79.5t69.5 208.5q0 137 -69.5 219t-186.5 82q-110 0 -177 -83t-67 -218z" />
<glyph unicode=":" horiz-adv-x="569" d="M145 0v276h279v-276h-279zM145 770v277h279v-277h-279z" />
<glyph unicode=";" horiz-adv-x="569" d="M145 0v276h279v-208q0 -160 -62 -257.5t-217 -132.5v123q128 39 134 199h-134zM145 770v277h279v-277h-279z" />
<glyph unicode="&#x3c;" horiz-adv-x="1228" d="M86 426v205l1059 407v-217l-795 -293l795 -292v-222z" />
<glyph unicode="=" horiz-adv-x="1228" d="M86 209v197h1059v-197h-1059zM86 649v197h1059v-197h-1059z" />
<glyph unicode="&#x3e;" horiz-adv-x="1228" d="M86 14v222l795 292l-795 293v217l1059 -407v-205z" />
<glyph unicode="?" d="M90 995q9 228 132.5 360t355.5 132q207 0 332.5 -111.5t125.5 -294.5q0 -46 -6.5 -84.5t-23.5 -73.5t-32 -59.5t-47 -57t-51.5 -50t-62.5 -54.5t-58 -50t-37.5 -38.5t-27 -37.5t-12 -41.5t-8 -56t-0.5 -75.5h-221q0 133 27 215.5t114 163.5q7 7 39 35.5t42 38t34.5 35.5 t34 42.5t23 41.5t18.5 51t5 55q0 89 -59.5 147t-153.5 58q-126 0 -185 -80t-62 -211h-236zM426 0v260h264v-260h-264z" />
<glyph unicode="@" horiz-adv-x="1638" d="M59 709q0 164 64 309.5t174 249.5t263 164.5t325 60.5q202 0 360 -77.5t246 -217t88 -317.5q0 -141 -58.5 -265.5t-157.5 -199t-210 -74.5q-75 0 -122.5 41.5t-47.5 108.5q0 18 6 45q-102 -195 -284 -195q-124 0 -201.5 86.5t-77.5 226.5q0 130 57 245t152 183t203 68 q87 0 144 -34.5t89 -110.5l31 112h168l-133 -448q-25 -85 -25 -125q0 -38 23 -60t63 -22q67 0 130 61t101.5 161t38.5 206q0 223 -161.5 362.5t-419.5 139.5q-151 0 -284.5 -52.5t-228 -143.5t-149.5 -219t-55 -273q0 -184 88 -330t245.5 -227.5t356.5 -81.5q152 0 288 47.5 t275 150.5l58 -78q-159 -118 -306.5 -169.5t-320.5 -51.5q-162 0 -307 53t-253 148t-171.5 236t-63.5 307zM621 645q0 -85 36 -133.5t99 -48.5q57 0 107.5 49t81 119.5t48 141t17.5 120.5q0 60 -37 98.5t-94 38.5t-108 -41.5t-82.5 -102.5t-49.5 -125.5t-18 -115.5z" />
<glyph unicode="A" horiz-adv-x="1366" d="M-16 0l563 1460h272l563 -1460h-274l-139 387h-578l-143 -387h-264zM457 580h444l-217 614z" />
<glyph unicode="B" horiz-adv-x="1441" d="M152 0v1458h665q230 0 351.5 -99t121.5 -267q0 -104 -57.5 -187.5t-151.5 -120.5q127 -31 201 -123.5t74 -230.5q0 -193 -128 -311.5t-333 -118.5h-743zM401 209h383q70 0 123 9.5t98.5 33.5t70 70.5t24.5 113.5q0 72 -25.5 120t-74 71t-99 31t-121.5 8h-379v-457z M401 850h349q146 0 216 46.5t70 154.5q0 53 -15.5 90.5t-39.5 58.5t-63 33t-74.5 15t-85.5 3h-357v-401z" />
<glyph unicode="C" horiz-adv-x="1478" d="M86 729q0 124 29.5 238t88 209.5t141 165.5t194 109.5t241.5 39.5q111 0 211.5 -31t184 -90.5t140.5 -156.5t75 -220h-254q-26 131 -122.5 206t-238.5 75q-89 0 -162.5 -31t-122.5 -83.5t-83 -123t-49 -147.5t-15 -160q0 -84 14.5 -161t47.5 -148t82 -123.5t122.5 -83.5 t163.5 -31q170 0 260.5 100t112.5 273h256q-20 -267 -191.5 -428.5t-443.5 -161.5q-309 0 -495.5 209t-186.5 555z" />
<glyph unicode="D" horiz-adv-x="1478" d="M154 0v1458h555q152 0 266 -31t211 -118q104 -94 159.5 -237t55.5 -318q0 -387 -205 -592q-90 -90 -195.5 -126t-277.5 -36h-569zM408 215h301q100 0 176.5 26.5t125 72t79 113.5t43 144t12.5 170q0 234 -111 367t-342 133h-284v-1026z" />
<glyph unicode="E" horiz-adv-x="1290" d="M152 0v1458h1050v-215h-796v-387h739v-207h-739v-430h808v-219h-1062z" />
<glyph unicode="F" horiz-adv-x="1214" d="M154 0v1458h1009v-217h-751v-397h659v-207h-659v-637h-258z" />
<glyph unicode="G" horiz-adv-x="1554" d="M86 719q0 159 48.5 299t138 245t225.5 165.5t301 60.5q114 0 219.5 -33.5t189.5 -95t139.5 -156.5t67.5 -211h-248q-23 131 -122 206t-248 75q-210 0 -331.5 -148t-121.5 -403q0 -258 122 -404.5t339 -146.5q97 0 174 33.5t125 91t73 130.5t25 157h-393v196h625v-780 h-164l-39 174q-90 -108 -199.5 -158.5t-255.5 -50.5q-203 0 -360 94.5t-243.5 266t-86.5 393.5z" />
<glyph unicode="H" horiz-adv-x="1478" d="M150 0v1458h256v-579h667v579h256v-1458h-256v655h-667v-655h-256z" />
<glyph unicode="I" horiz-adv-x="569" d="M156 0v1458h258v-1458h-258z" />
<glyph unicode="J" horiz-adv-x="1099" d="M51 457v55h244v-80q0 -125 45.5 -191.5t165.5 -66.5q40 0 71.5 8.5t52.5 22t36 37t23 45t12 55.5t5 59.5t1 65.5v991h256v-1026q0 -230 -114 -348.5t-335 -118.5q-247 0 -355 125.5t-108 366.5z" />
<glyph unicode="K" horiz-adv-x="1402" d="M152 0v1458h254v-661l645 661h323l-583 -581l620 -877h-317l-480 698l-208 -209v-489h-254z" />
<glyph unicode="L" horiz-adv-x="1175" d="M152 0v1458h258v-1237h741v-221h-999z" />
<glyph unicode="M" horiz-adv-x="1820" d="M154 0v1458h358l408 -1141l393 1141h356v-1458h-244v1124l-405 -1124h-209l-416 1124v-1124h-241z" />
<glyph unicode="N" horiz-adv-x="1478" d="M150 0v1458h268l672 -1075v1075h245v-1458h-264l-680 1073v-1073h-241z" />
<glyph unicode="O" horiz-adv-x="1556" d="M78 729q0 161 48 300t136 242.5t222.5 162.5t297.5 59q204 0 362.5 -96t246.5 -270t88 -398q0 -225 -88 -399t-247.5 -269.5t-365.5 -95.5q-313 0 -506.5 211.5t-193.5 552.5zM336 733q0 -255 120 -404t326 -149q200 0 319.5 150.5t119.5 400.5t-120 398.5t-323 148.5 q-201 0 -321.5 -148.5t-120.5 -396.5z" />
<glyph unicode="P" horiz-adv-x="1366" d="M158 0v1458h633q235 0 371 -111.5t136 -332.5q0 -208 -126.5 -330.5t-346.5 -122.5h-411v-561h-256zM414 768h356q131 0 205 58t74 182q0 237 -301 237h-334v-477z" />
<glyph unicode="Q" horiz-adv-x="1556" d="M78 725q0 223 88.5 397t248.5 270.5t365 96.5q152 0 281.5 -56t221 -155.5t143 -240.5t51.5 -306q0 -174 -54.5 -321.5t-152.5 -241.5l190 -164l-125 -139l-217 184q-134 -84 -346 -84q-309 0 -501.5 210.5t-192.5 549.5zM336 729q0 -253 120.5 -404t323.5 -151 q87 0 164 35l-149 127l123 139l172 -149q72 92 101.5 186t29.5 217q0 249 -121 397t-324 148q-200 0 -320 -149t-120 -396z" />
<glyph unicode="R" horiz-adv-x="1441" d="M152 0v1458h690q103 0 188 -21.5t155 -67.5t109 -126.5t39 -189.5q0 -132 -63 -225.5t-178 -133.5q45 -10 79.5 -27.5t57 -44t37 -52.5t23.5 -65t12.5 -68.5t7.5 -74.5q1 -16 4 -50t4 -48.5t3.5 -43.5t4.5 -42t5.5 -36.5t7 -36t8.5 -30.5t10.5 -29.5t13 -23.5t16.5 -22 h-274q-6 9 -11 19.5t-9 24.5t-7 25t-5.5 31t-4 31.5t-3 37t-2.5 37t-2.5 42t-2.5 43.5q-6 90 -21 146t-51 95t-95 54.5t-153 15.5h-339v-602h-254zM406 793h337q58 0 100.5 4t89.5 18t77 38.5t49.5 68.5t19.5 104q0 56 -17.5 97t-44.5 65t-68.5 38t-81.5 18.5t-91 4.5h-370 v-456z" />
<glyph unicode="S" horiz-adv-x="1327" d="M66 483h251q0 -82 29.5 -143.5t82 -98t119 -54t146.5 -17.5q148 0 231 61t83 168q0 31 -7.5 56.5t-20 44.5t-35.5 35t-45.5 27.5t-60 23.5t-69.5 20.5t-82 21.5q-5 1 -7 1.5l-6 1.5t-7 2q-219 57 -293 86q-162 63 -219 170q-37 71 -37 172q0 195 146 310.5t392 115.5 q114 0 209 -26.5t170 -80.5t118.5 -143.5t47.5 -208.5h-244q-23 256 -317 256q-131 0 -205 -54t-74 -149q0 -38 10.5 -64t28.5 -44t57 -34t81 -28t116 -31q50 -13 78 -20q192 -49 266 -79q184 -75 237 -214q24 -63 24 -143q0 -96 -33 -174t-88.5 -130t-130.5 -87t-157 -50.5 t-171 -15.5q-132 0 -242.5 31.5t-194 94t-130.5 162t-47 228.5z" />
<glyph unicode="T" horiz-adv-x="1214" d="M14 1237v221h1186v-221h-465v-1237h-256v1237h-465z" />
<glyph unicode="U" horiz-adv-x="1478" d="M141 569v889h256v-940q0 -168 89 -252t262 -84q85 0 146 20.5t97 54t56.5 89t27 113t6.5 139.5v860h256v-893q0 -594 -594 -594q-309 0 -455.5 147t-146.5 451z" />
<glyph unicode="V" horiz-adv-x="1251" d="M-10 1458h268l369 -1153l377 1153h260l-500 -1458h-285z" />
<glyph unicode="W" horiz-adv-x="1933" d="M16 1458h260l267 -1110l299 1110h260l289 -1110l274 1110h260l-403 -1458h-260l-295 1120l-301 -1120h-265z" />
<glyph unicode="X" horiz-adv-x="1327" d="M-12 0l520 756l-483 702h305l332 -516l346 516h286l-483 -702l518 -756h-311l-365 557l-370 -557h-295z" />
<glyph unicode="Y" horiz-adv-x="1327" d="M-10 1458h295l387 -645l383 645h286l-548 -878v-580h-252v580z" />
<glyph unicode="Z" horiz-adv-x="1290" d="M39 0v211l844 1026h-783v221h1112v-203l-850 -1034h875v-221h-1198z" />
<glyph unicode="[" horiz-adv-x="606" d="M145 -369v1844h459v-183h-242v-1478h242v-183h-459z" />
<glyph unicode="\" horiz-adv-x="720" d="M6 1493h189l524 -1528h-189z" />
<glyph unicode="]" horiz-adv-x="606" d="M2 -186h242v1478h-242v183h459v-1844h-459v183z" />
<glyph unicode="^" horiz-adv-x="1228" d="M164 555l358 870h185l358 -870h-211l-244 610l-235 -610h-211z" />
<glyph unicode="_" horiz-adv-x="1024" d="M0 -154h1024v-102h-1024v102z" />
<glyph unicode="`" horiz-adv-x="493" d="M-74 1489h275l186 -293h-170z" />
<glyph unicode="a" d="M68 289q0 45 9.5 83t23.5 66.5t39.5 52.5t49 40.5t60 30.5t64 22t70.5 16t70 11.5t71 9.5q11 1 16 2q125 15 169.5 26.5t61.5 34.5q14 17 14 76q0 82 -53.5 121t-163.5 39q-114 0 -168 -43t-67 -146h-221q37 359 462 359q96 0 174 -18.5t137 -56t91.5 -100t32.5 -145.5 v-537q0 -46 11.5 -61.5t43.5 -15.5q24 0 53 4v-164q-95 -23 -151 -23q-150 0 -172 127q-133 -127 -371 -127q-164 0 -260 85t-96 231zM307 297q0 -75 50 -116.5t141 -41.5q72 0 135.5 22t103.5 62q23 23 34 58.5t12 57t1 67.5v124q-27 -15 -61.5 -25.5t-55 -14.5t-68.5 -9.5 t-60 -7.5q-30 -4 -48 -7.5t-45.5 -10t-44.5 -14.5t-36.5 -21.5t-31 -30t-19 -40t-7.5 -52.5z" />
<glyph unicode="b" horiz-adv-x="1251" d="M125 0v1458h231v-538q58 82 149 122.5t197 40.5q212 0 339.5 -149t127.5 -397q0 -255 -131 -410.5t-348 -155.5q-240 0 -346 172v-143h-219zM348 526q0 -170 79 -268t216 -98q132 0 211.5 101.5t79.5 270.5q0 167 -79 266t-212 99h-3q-136 0 -214 -98q-78 -99 -78 -273z " />
<glyph unicode="c" d="M76 518q0 261 142.5 416.5t383.5 155.5q202 0 326.5 -102.5t144.5 -285.5h-231q-20 100 -81.5 153.5t-156.5 53.5q-135 0 -213 -101t-78 -278q0 -175 75 -273.5t208 -98.5q105 0 171 62t85 179h229q-25 -195 -156 -310.5t-329 -115.5q-238 0 -379 151t-141 394z" />
<glyph unicode="d" horiz-adv-x="1251" d="M80 530q0 255 129.5 405t349.5 150q224 0 336 -165v538h229v-1458h-219v145q-100 -174 -338 -174q-224 0 -355.5 151t-131.5 408zM315 535q0 -173 79.5 -274t215.5 -101q137 0 214 98t77 272q0 173 -79 270t-220 97q-132 0 -209.5 -97t-77.5 -265z" />
<glyph unicode="e" d="M70 516q0 249 144.5 410t367.5 161q232 0 366.5 -158.5t134.5 -432.5v-25h-780q5 -160 80.5 -247t210.5 -87q97 0 157 46t95 147h223q-39 -171 -168.5 -268t-310.5 -97q-239 0 -379.5 154.5t-140.5 396.5zM307 627h543q-10 133 -82 209.5t-188 76.5t-186 -73.5 t-87 -212.5z" />
<glyph unicode="f" horiz-adv-x="645" d="M20 887v170h175v84q0 166 72 245.5t241 79.5q68 0 139 -6v-180q-67 6 -102 6q-72 0 -96.5 -26t-24.5 -101v-102h201v-170h-199v-887h-231v887h-175z" />
<glyph unicode="g" horiz-adv-x="1214" d="M74 537q0 249 128.5 398.5t342.5 149.5q113 0 188.5 -42t140.5 -134v148h218v-934q0 -134 -26 -231t-85 -166.5t-157.5 -103.5t-239.5 -34q-433 0 -473 322h233q17 -82 76.5 -120t169.5 -38q146 0 212 74t66 237v125q-60 -93 -140.5 -135.5t-195.5 -42.5 q-211 0 -334.5 142.5t-123.5 384.5zM305 541q0 -159 76.5 -253.5t204.5 -94.5q130 0 206 97t76 263q0 161 -75 252.5t-207 91.5t-206.5 -94.5t-74.5 -261.5z" />
<glyph unicode="h" horiz-adv-x="1175" d="M125 0v1458h231v-547q116 172 334 172q172 0 268.5 -93t96.5 -273v-717h-236v641q0 58 -8 99t-29 77t-63 54t-105 18q-134 0 -196 -88.5t-62 -233.5v-567h-231z" />
<glyph unicode="i" horiz-adv-x="493" d="M129 0v1057h233v-1057h-233zM129 1235v229h233v-229h-233z" />
<glyph unicode="j" horiz-adv-x="493" d="M-39 -209q54 -4 55 -4q66 0 93.5 18t27.5 78v1174h234v-1112q0 -186 -68.5 -268.5t-243.5 -82.5q-19 0 -98 7v190zM137 1235v231h234v-231h-234z" />
<glyph unicode="k" horiz-adv-x="1099" d="M125 0v1458h227v-821l422 420h287l-406 -387l443 -670h-285l-321 510l-140 -131v-379h-227z" />
<glyph unicode="l" horiz-adv-x="493" d="M131 0v1458h231v-1458h-231z" />
<glyph unicode="m" horiz-adv-x="1781" d="M125 0v1057h221v-150q65 89 145 133.5t187 44.5q104 0 181.5 -46.5t113.5 -133.5q126 180 342 180q151 0 248.5 -88.5t97.5 -246.5v-750h-234v649q0 54 -7 93t-26 74.5t-58 54t-97 18.5q-114 0 -172.5 -70.5t-58.5 -197.5v-621h-234v662q0 54 -5.5 90t-22.5 70 t-53.5 50.5t-92.5 16.5q-119 0 -180.5 -76.5t-61.5 -204.5v-608h-233z" />
<glyph unicode="n" horiz-adv-x="1175" d="M125 0v1057h221v-156q66 96 149 140t201 44q180 0 269.5 -98.5t89.5 -281.5v-705h-234v614q0 50 -3.5 85.5t-15.5 74t-33.5 62.5t-60 39.5t-92.5 15.5q-117 0 -187.5 -75.5t-70.5 -246.5v-569h-233z" />
<glyph unicode="o" horiz-adv-x="1214" d="M74 528q0 255 146 407t392 152q243 0 386 -151t143 -408q0 -258 -143 -409.5t-386 -151.5q-247 0 -392.5 151.5t-145.5 409.5zM309 528q0 -178 80 -278t221 -100q138 0 216.5 101t78.5 279q0 173 -79.5 273t-217.5 100t-218.5 -101t-80.5 -274z" />
<glyph unicode="p" horiz-adv-x="1251" d="M127 -391v1448h219v-142q53 86 144.5 129t199.5 43q220 0 350.5 -153t130.5 -410q0 -251 -127.5 -401t-341.5 -150q-225 0 -344 166v-530h-231zM350 528q0 -172 79 -270t218 -98q134 0 211.5 97.5t77.5 266.5q0 172 -79 273.5t-214 101.5q-138 0 -215.5 -98.5 t-77.5 -272.5z" />
<glyph unicode="q" horiz-adv-x="1251" d="M80 524q0 260 130 411.5t353 151.5q235 0 342 -169v139h219v-1448h-229v532q-65 -89 -148 -128.5t-198 -39.5q-215 0 -342 149t-127 402zM315 522q0 -169 78 -265.5t213 -96.5q138 0 216.5 99t78.5 276q0 172 -79 268t-220 96q-131 0 -209 -102t-78 -275z" />
<glyph unicode="r" horiz-adv-x="720" d="M102 0v1057h220v-211q113 235 354 235q6 0 12 -0.5t15 -1.5l18 -2v-223q-61 6 -82 6q-305 0 -305 -395v-465h-232z" />
<glyph unicode="s" horiz-adv-x="1062" d="M63 338h224q9 -101 76 -150t180 -49q103 0 165 42t62 112q0 28 -12.5 50t-29 36t-50 27t-57.5 19.5t-70 17.5q-22 5 -33 8q-184 45 -234 63q-133 48 -174 135q-24 50 -24 119q0 150 114.5 234.5t317.5 84.5q74 0 139 -12t121.5 -38t96.5 -64.5t63 -95.5t23 -127h-224 q-11 92 -69.5 130t-159.5 38q-89 0 -139 -32.5t-50 -90.5q0 -17 3 -31.5t12 -26.5t17 -20.5t26 -16.5t29.5 -13.5t38 -12t42 -10t50 -11.5t53.5 -12h1h1l1 -1h1h1h1l1 -1h1h1h1q168 -40 241 -76q158 -81 158 -246q0 -160 -124 -254t-336 -94q-224 0 -345.5 94t-130.5 275z " />
<glyph unicode="t" horiz-adv-x="681" d="M16 887v170h177v317h233v-317h213v-170h-213v-557v-35.5t1.5 -29.5t4.5 -27.5t8.5 -20.5t14 -17.5t21.5 -11t30.5 -8.5t40.5 -2q57 0 92 4v-184q-70 -8 -158 -8q-48 0 -86.5 5t-67 14.5t-50 24t-36 32.5t-24 40.5t-14.5 48.5t-7.5 56t-2.5 63v69v14v12.5v13.5v504h-177z " />
<glyph unicode="u" horiz-adv-x="1175" d="M123 356v701h233v-604q0 -40 1 -65t5.5 -58.5t12.5 -54t23 -43t37 -35.5t54 -21t74 -8q89 0 148 47.5t82.5 119t23.5 163.5v559h234v-1057h-220v158q-133 -187 -348 -187q-175 0 -267.5 99.5t-92.5 285.5z" />
<glyph unicode="v" horiz-adv-x="1062" d="M16 1057h254l271 -813l260 813h241l-378 -1059h-263z" />
<glyph unicode="w" horiz-adv-x="1593" d="M25 1057h247l209 -793l199 793h235l195 -793l219 793h238l-334 -1057h-240l-198 784l-197 -784h-246z" />
<glyph unicode="x" horiz-adv-x="1099" d="M6 0l400 555l-367 502h283l221 -326l231 326h270l-358 -490l404 -567h-281l-268 389l-260 -389h-275z" />
<glyph unicode="y" horiz-adv-x="1062" d="M6 1057h256l283 -778l266 778h244l-391 -1037q-60 -159 -73 -189q-68 -150 -168 -201q-66 -33 -153 -33q-65 0 -161 12v196q73 -14 122 -14q22 0 41 7t33 17t27.5 28t22 33t18 39t14.5 39t13 40.5t12 36.5z" />
<glyph unicode="z" horiz-adv-x="1024" d="M45 0v178l590 694h-549v185h860v-164l-598 -705h629v-188h-932z" />
<glyph unicode="{" horiz-adv-x="606" d="M-49 489v125q142 22 202 81t60 184v155q0 99 19 172.5t54 123t90.5 81t122.5 46t156 18.5v-125q-129 -12 -185 -80t-56 -211v-119q0 -87 -11 -147.5t-41 -113.5t-87.5 -84t-145.5 -42q73 -11 124.5 -34.5t83 -54.5t48.5 -79.5t23 -98.5t6 -122v-123q0 -133 55.5 -204 t185.5 -81v-125q-117 6 -195.5 27.5t-136 70.5t-84 132t-26.5 207v120q0 78 -10 125.5t-39.5 84t-79.5 57t-133 34.5z" />
<glyph unicode="|" horiz-adv-x="454" d="M125 -438v2048h205v-2048h-205z" />
<glyph unicode="}" horiz-adv-x="606" d="M-49 -244q130 10 186 81t56 204v123q0 71 5.5 121t23 98.5t48.5 80t82.5 55t124.5 34.5q-71 9 -122 31.5t-82 55t-49 81t-24.5 99.5t-6.5 120v119q0 143 -56.5 211t-185.5 80v125q89 -4 156 -18.5t122.5 -46t90.5 -81t54 -123t19 -172.5v-155q0 -125 60 -184t202 -81 v-125q-83 -14 -133 -34.5t-79.5 -57t-39.5 -84t-10 -125.5v-120q0 -124 -26.5 -207t-84 -132t-136 -70.5t-195.5 -27.5v125z" />
<glyph unicode="~" horiz-adv-x="1228" d="M68 358q6 66 25.5 123.5t53 106.5t87.5 77.5t124 28.5q20 0 44.5 -3.5t44 -8t51 -13.5t46 -13.5t49.5 -16.5t42 -14q21 -7 65.5 -22t60 -20t44 -13t48.5 -10.5t42 -2.5q53 0 87 36t46 103h133q-17 -162 -92.5 -248t-200.5 -86q-16 0 -34.5 2t-42 7t-38.5 8.5t-44.5 12.5 t-38.5 11.5t-41.5 13t-34.5 11.5q-14 5 -59.5 22t-73.5 26.5t-64.5 18.5t-58.5 9q-53 0 -90.5 -40t-46.5 -106h-133z" />
<glyph unicode="&#xa3;" d="M68 655v129h118q-33 43 -59.5 130t-26.5 143q0 187 136.5 303.5t355.5 116.5q236 0 365.5 -129t129.5 -361h-231q-5 132 -68.5 210.5t-195.5 78.5q-106 0 -175 -65.5t-69 -166.5q0 -17 3 -35.5t6 -32t11.5 -35.5t12 -31.5t16 -34t15.5 -30t18 -32.5t16 -29h299v-129h-241 v-2q24 -73 24 -141q0 -87 -47 -163.5t-157 -166.5q112 51 206 51q68 0 156 -24q108 -31 152 -31q112 0 192 80l105 -174q-57 -57 -139 -85t-171 -28q-20 0 -42 2.5t-37 4.5t-41.5 9t-36 9.5t-41.5 12t-37 11.5q-116 35 -195 35q-39 0 -78.5 -12.5t-64 -26t-68.5 -41.5 l-110 166q97 66 160 154t63 190q0 74 -47 170h-182z" />
<glyph unicode="&#xa4;" d="M70 328l135 135q-76 123 -76 246q0 133 76 245l-135 136l118 118l136 -135q48 36 115.5 56t129.5 20q127 0 248 -76l133 135l119 -118l-135 -136q76 -102 76 -247q0 -125 -76 -244l135 -135l-119 -119l-135 135q-104 -76 -244 -76q-135 0 -247 76l-136 -135zM307 709 q0 -109 76.5 -186t185.5 -77q107 0 184.5 77t77.5 186q0 108 -77 185t-185 77t-185 -77t-77 -185z" />
<glyph unicode="&#xa6;" horiz-adv-x="454" d="M125 -182v512h205v-512h-205zM125 842v512h205v-512h-205z" />
<glyph unicode="&#xa7;" d="M51 647q0 104 58.5 184t156.5 109q-90 94 -90 209q0 148 112.5 241t291.5 93q183 0 292 -102.5t109 -272.5h-215q-6 93 -55 142.5t-136 49.5q-77 0 -124.5 -39.5t-47.5 -105.5q0 -21 5.5 -39.5t13.5 -33t26.5 -31t33.5 -28.5t47 -30.5t55 -31l69 -37.5t78 -43 q140 -77 182 -106q150 -103 170 -235q4 -23 4 -48q0 -101 -55 -181t-155 -121q112 -89 112 -235q0 -151 -115 -247.5t-296 -96.5q-198 0 -313.5 104t-119.5 287h220q11 -101 62 -153t153 -52q80 0 130 42.5t50 109.5q0 77 -71.5 131.5t-312.5 181.5q-12 7 -18 10 q-55 29 -93.5 52t-82 58t-70 71t-44 86t-17.5 108zM258 666q0 -55 32.5 -92t88.5 -68l371 -209q55 19 91 64.5t36 97.5q0 53 -30 88.5t-85 66.5l-375 215q-57 -17 -93 -62.5t-36 -100.5z" />
<glyph unicode="&#xa9;" horiz-adv-x="1638" d="M55 729q0 155 60.5 296.5t163 244t244 163t296.5 60.5t296.5 -60.5t244 -163t163 -244t60.5 -296.5t-60.5 -296.5t-163 -244t-244 -163t-296.5 -60.5t-296.5 60.5t-244 163t-163 244t-60.5 296.5zM156 729q0 -135 52.5 -258t141 -211.5t211.5 -141t258 -52.5 q181 0 333.5 88.5t241.5 241.5t89 333q0 135 -52.5 257.5t-141.5 211.5t-212 142t-258 53q-180 0 -333 -89t-241.5 -241.5t-88.5 -333.5zM418 731q0 196 114 323.5t289 127.5q152 0 258 -90t115 -228h-156q-15 86 -71.5 135.5t-141.5 49.5q-107 0 -173 -86t-66 -226 q0 -147 68 -234t182 -87q168 0 206 174h156q-13 -133 -115 -220t-243 -87q-182 0 -302 127.5t-120 320.5z" />
<glyph unicode="&#xab;" horiz-adv-x="948" d="M102 432v221l322 250v-209l-199 -149l199 -154v-213zM506 428v225l317 250v-213l-194 -147l194 -152v-211z" />
<glyph unicode="&#xac;" horiz-adv-x="1228" d="M86 649v197h1059v-637h-201v440h-858z" />
<glyph unicode="&#xad;" horiz-adv-x="796" d="M98 455v217h600v-217h-600z" />
<glyph unicode="&#xae;" horiz-adv-x="819" d="M27 1112q0 157 111.5 269t269.5 112t270.5 -111.5t112.5 -269.5q1 -158 -111.5 -270.5t-271.5 -112.5q-158 0 -269.5 112.5t-111.5 270.5zM92 1112q0 -131 93 -224t223 -93t222.5 93t92.5 224q0 130 -92.5 222.5t-222.5 92.5q-131 0 -223.5 -92.5t-92.5 -222.5zM250 903 v420h149q29 0 52.5 -2t50 -10t44 -20.5t29 -36t11.5 -54.5q0 -40 -18 -63t-58 -37q40 -15 54 -44t16 -95q0 -33 10 -58h-94q-9 27 -9 58q-1 63 -19.5 81.5t-78.5 18.5h-45v-158h-94zM344 1135h51q51 0 72.5 13t21.5 44q0 29 -21.5 42t-72.5 13h-51v-112z" />
<glyph unicode="&#xb0;" horiz-adv-x="819" d="M80 1116q0 136 97 233t233 97t232.5 -96.5t96.5 -233.5t-96.5 -233.5t-232.5 -96.5t-233 97t-97 233zM248 1116q0 -66 47.5 -114t114.5 -48t114 48t47 114q0 68 -47 115t-114 47q-68 0 -115 -47t-47 -115z" />
<glyph unicode="&#xb1;" horiz-adv-x="1228" d="M86 -33v195h1059v-195h-1059zM86 559v197h424v331h209v-331h426v-197h-426v-323h-209v323h-424z" />
<glyph unicode="&#xb5;" horiz-adv-x="1175" d="M115 -391v1448h233v-469v-19q0 -62 1 -95t7 -90.5t20.5 -90.5t38 -68.5t64.5 -52t96 -16.5q48 0 87 14.5t65 38.5t45.5 60t30 71.5t17 82t8 83.5t1.5 82v469h234v-1057h-199v145q-58 -86 -125.5 -127t-167.5 -41q-89 0 -146.5 39t-76.5 76v-483h-233z" />
<glyph unicode="&#xb6;" horiz-adv-x="1228" d="M35 965q0 227 143 360t389 133h598v-158h-110v-1673h-191v1673h-227v-1673h-193v883q-192 15 -300.5 136.5t-108.5 318.5z" />
<glyph unicode="&#xb7;" horiz-adv-x="569" d="M145 457v276h279v-276h-279z" />
<glyph unicode="&#xbb;" horiz-adv-x="948" d="M125 184v207l194 148l-194 151v213l315 -250v-223zM524 180v209l197 148l-197 155v213l322 -256v-221z" />
<glyph unicode="&#xf7;" horiz-adv-x="1228" d="M86 430v195h1059v-195h-1059zM494 18v267h241v-267h-241zM494 770v266h241v-266h-241z" />
<glyph unicode="&#x192;" d="M0 -340l31 182q33 -2 80 -2q26 0 47.5 3.5t38 12.5t28.5 17t22 25t16 27.5t12 33.5t8.5 35t8 40t7.5 40l127 659h-188l30 164h189l41 221q34 186 124.5 266t270.5 80q57 0 133 -6l-35 -182q-43 4 -82 4q-81 0 -117.5 -38t-58.5 -142l-41 -203h209l-31 -164h-206 l-127 -676q-17 -90 -34 -148t-47 -111t-72.5 -82t-107.5 -45.5t-155 -16.5q-29 0 -121 6z" />
<glyph unicode="&#x401;" horiz-adv-x="1290" d="M152 0v1458h1050v-215h-796v-387h739v-207h-739v-430h808v-219h-1062zM354 1583v221h230v-221h-230zM764 1583v221h227v-221h-227z" />
<glyph unicode="&#x402;" horiz-adv-x="1593" d="M16 1237v221h1184v-221h-506v-498q115 166 332 166q241 0 377.5 -158t136.5 -419q0 -164 -67.5 -297t-181.5 -206t-251 -73q-19 0 -69 4v195q135 0 224 104t89 279q0 176 -75.5 273.5t-221.5 97.5q-137 0 -215 -99t-78 -272v-334h-256v1237h-422z" />
<glyph unicode="&#x403;" horiz-adv-x="1153" d="M156 0v1458h989v-221h-733v-1237h-256zM438 1550l174 293h271l-277 -293h-168z" />
<glyph unicode="&#x404;" horiz-adv-x="1478" d="M88 729q0 124 29.5 238t88 209.5t141 165.5t194 109.5t241.5 39.5q147 0 271 -50t216 -158.5t120 -262.5h-256q-32 120 -126.5 187t-228.5 67q-93 0 -169 -33.5t-126.5 -93t-81.5 -132.5t-45 -159h617v-207h-623q8 -94 36.5 -175.5t78 -148t129.5 -105t182 -38.5 q152 0 241 82t122 225h258q-37 -240 -205 -382t-422 -142q-309 0 -495.5 209t-186.5 555z" />
<glyph unicode="&#x405;" horiz-adv-x="1327" d="M66 483h251q0 -82 29.5 -143.5t82 -98t119 -54t146.5 -17.5q148 0 231 61t83 168q0 31 -7.5 56.5t-20 44.5t-35.5 35t-45.5 27.5t-60 23.5t-69.5 20.5t-82 21.5q-5 1 -7 1.5l-6 1.5t-7 2q-219 57 -293 86q-162 63 -219 170q-37 71 -37 172q0 195 146 310.5t392 115.5 q114 0 209 -26.5t170 -80.5t118.5 -143.5t47.5 -208.5h-244q-23 256 -317 256q-131 0 -205 -54t-74 -149q0 -38 10.5 -64t28.5 -44t57 -34t81 -28t116 -31q50 -13 78 -20q192 -49 266 -79q184 -75 237 -214q24 -63 24 -143q0 -96 -33 -174t-88.5 -130t-130.5 -87t-157 -50.5 t-171 -15.5q-132 0 -242.5 31.5t-194 94t-130.5 162t-47 228.5z" />
<glyph unicode="&#x406;" horiz-adv-x="569" d="M156 0v1458h258v-1458h-258z" />
<glyph unicode="&#x407;" horiz-adv-x="569" d="M-35 1579v223h230v-223h-230zM156 0v1458h258v-1458h-258zM375 1579v223h227v-223h-227z" />
<glyph unicode="&#x408;" horiz-adv-x="1099" d="M51 457v55h244v-80q0 -125 45.5 -191.5t165.5 -66.5q40 0 71.5 8.5t52.5 22t36 37t23 45t12 55.5t5 59.5t1 65.5v991h256v-1026q0 -230 -114 -348.5t-335 -118.5q-247 0 -355 125.5t-108 366.5z" />
<glyph unicode="&#x409;" horiz-adv-x="2119" d="M16 0v197q44 -17 101 -17q43 0 73.5 16t58.5 60t44 132.5t20 223.5l29 846h915v-557h297q239 0 368.5 -116.5t129.5 -331.5q0 -217 -130 -335t-368 -118h-553v1237h-413l-27 -694q-6 -149 -38 -260.5t-85.5 -178t-120 -99t-147.5 -32.5q-71 0 -154 27zM1257 209h287 q252 0 252 237q0 115 -68 180.5t-188 65.5h-283v-483z" />
<glyph unicode="&#x40a;" horiz-adv-x="2119" d="M150 0v1458h256v-555h581v555h256v-557h311q239 0 368.5 -116.5t129.5 -331.5q0 -217 -130 -335t-368 -118h-567v692h-581v-692h-256zM1243 209h301q252 0 252 237q0 115 -68 180.5t-188 65.5h-297v-483z" />
<glyph unicode="&#x40b;" horiz-adv-x="1593" d="M16 1237v221h1184v-221h-506v-360q192 28 314 28q127 0 223.5 -31.5t150 -77.5t86 -109.5t42.5 -116.5t10 -109v-461h-256v383q0 34 -1 54.5t-7 55t-16.5 57t-32.5 49t-53 42.5t-78.5 26.5t-108.5 10.5q-127 0 -273 -23v-655h-256v1237h-422z" />
<glyph unicode="&#x40c;" horiz-adv-x="1402" d="M152 0v1458h254v-661l645 661h323l-583 -581l620 -877h-317l-480 698l-208 -209v-489h-254zM561 1550l174 293h271l-277 -293h-168z" />
<glyph unicode="&#x40e;" horiz-adv-x="1251" d="M-10 1458h282l353 -782l360 782h277l-568 -1161q-89 -181 -188.5 -256.5t-226.5 -75.5q-89 0 -173 37v215q62 -37 164 -37q65 0 110 52t112 176l2 2zM297 1827h119q20 -80 72.5 -118t144.5 -38t144.5 38t72.5 118h119q-15 -148 -97 -218.5t-239 -70.5t-239 70.5 t-97 218.5z" />
<glyph unicode="&#x40f;" horiz-adv-x="1478" d="M150 0v1458h256v-1237h667v1237h256v-1458h-463v-362h-256v362h-460z" />
<glyph unicode="&#x410;" horiz-adv-x="1366" d="M-16 0l563 1460h272l563 -1460h-274l-139 387h-578l-143 -387h-264zM457 580h444l-217 614z" />
<glyph unicode="&#x411;" horiz-adv-x="1441" d="M156 0v1458h1073v-221h-817v-336h436q239 0 368.5 -116.5t129.5 -331.5q0 -217 -130 -335t-368 -118h-692zM412 209h426q252 0 252 237q0 115 -68 180.5t-188 65.5h-422v-483z" />
<glyph unicode="&#x412;" horiz-adv-x="1441" d="M152 0v1458h665q230 0 351.5 -99t121.5 -267q0 -104 -57.5 -187.5t-151.5 -120.5q127 -31 201 -123.5t74 -230.5q0 -193 -128 -311.5t-333 -118.5h-743zM401 209h383q70 0 123 9.5t98.5 33.5t70 70.5t24.5 113.5q0 72 -25.5 120t-74 71t-99 31t-121.5 8h-379v-457z M401 850h349q146 0 216 46.5t70 154.5q0 53 -15.5 90.5t-39.5 58.5t-63 33t-74.5 15t-85.5 3h-357v-401z" />
<glyph unicode="&#x413;" horiz-adv-x="1153" d="M156 0v1458h989v-221h-733v-1237h-256z" />
<glyph unicode="&#x414;" horiz-adv-x="1478" d="M10 221h142q84 148 137 430t53 582v225h950v-1237h164v-583h-248v362h-950v-362h-248v583zM426 221h610v1016h-444v-88q0 -264 -48 -525.5t-118 -402.5z" />
<glyph unicode="&#x415;" horiz-adv-x="1290" d="M152 0v1458h1050v-215h-796v-387h739v-207h-739v-430h808v-219h-1062z" />
<glyph unicode="&#x416;" horiz-adv-x="2136" d="M-14 0l630 840l-561 618h316l569 -655v655h256v-655l569 655h316l-561 -618l630 -840h-319l-477 655l-158 -176v-479h-256v479l-158 176l-477 -655h-319z" />
<glyph unicode="&#x417;" horiz-adv-x="1327" d="M66 483h251q0 -82 29.5 -143.5t82 -98t119 -54t146.5 -17.5q138 0 212.5 66t74.5 190q0 115 -72 174t-200 59h-179v199h179q100 0 166.5 63t66.5 164q0 97 -67.5 151t-190.5 54q-294 0 -317 -256h-244q4 119 47.5 208.5t118.5 143.5t170 80.5t209 26.5q111 0 204.5 -23.5 t166.5 -70.5t114 -124t41 -177q0 -110 -71.5 -200.5t-161.5 -113.5v-6q123 -25 199.5 -121.5t76.5 -234.5q0 -57 -18 -116.5t-60.5 -121t-104.5 -109.5t-159 -78t-215 -30q-132 0 -242.5 31.5t-194 94t-130.5 162t-47 228.5z" />
<glyph unicode="&#x418;" horiz-adv-x="1478" d="M150 0v1458h256v-1118l626 1118h297v-1458h-256v1118l-627 -1118h-296z" />
<glyph unicode="&#x419;" horiz-adv-x="1478" d="M150 0v1458h256v-1118l626 1118h297v-1458h-256v1118l-627 -1118h-296zM403 1827h119q20 -80 72.5 -118t144.5 -38t144.5 38t72.5 118h119q-15 -148 -97 -218.5t-239 -70.5t-239 70.5t-97 218.5z" />
<glyph unicode="&#x41a;" horiz-adv-x="1402" d="M152 0v1458h254v-661l645 661h323l-583 -581l620 -877h-317l-480 698l-208 -209v-489h-254z" />
<glyph unicode="&#x41b;" horiz-adv-x="1441" d="M16 0v197q44 -17 101 -17q43 0 73.5 16t58.5 60t44 132.5t20 223.5l29 846h952v-1458h-256v1237h-450l-27 -694q-6 -149 -38 -260.5t-85.5 -178t-120 -99t-147.5 -32.5q-71 0 -154 27z" />
<glyph unicode="&#x41c;" horiz-adv-x="1820" d="M154 0v1458h358l408 -1141l393 1141h356v-1458h-244v1124l-405 -1124h-209l-416 1124v-1124h-241z" />
<glyph unicode="&#x41d;" horiz-adv-x="1478" d="M150 0v1458h256v-579h667v579h256v-1458h-256v655h-667v-655h-256z" />
<glyph unicode="&#x41e;" horiz-adv-x="1556" d="M78 729q0 161 48 300t136 242.5t222.5 162.5t297.5 59q204 0 362.5 -96t246.5 -270t88 -398q0 -225 -88 -399t-247.5 -269.5t-365.5 -95.5q-313 0 -506.5 211.5t-193.5 552.5zM336 733q0 -255 120 -404t326 -149q200 0 319.5 150.5t119.5 400.5t-120 398.5t-323 148.5 q-201 0 -321.5 -148.5t-120.5 -396.5z" />
<glyph unicode="&#x41f;" horiz-adv-x="1478" d="M150 0v1458h1179v-1458h-256v1237h-667v-1237h-256z" />
<glyph unicode="&#x420;" horiz-adv-x="1366" d="M158 0v1458h633q235 0 371 -111.5t136 -332.5q0 -208 -126.5 -330.5t-346.5 -122.5h-411v-561h-256zM414 768h356q131 0 205 58t74 182q0 237 -301 237h-334v-477z" />
<glyph unicode="&#x421;" horiz-adv-x="1478" d="M86 729q0 124 29.5 238t88 209.5t141 165.5t194 109.5t241.5 39.5q111 0 211.5 -31t184 -90.5t140.5 -156.5t75 -220h-254q-26 131 -122.5 206t-238.5 75q-89 0 -162.5 -31t-122.5 -83.5t-83 -123t-49 -147.5t-15 -160q0 -84 14.5 -161t47.5 -148t82 -123.5t122.5 -83.5 t163.5 -31q170 0 260.5 100t112.5 273h256q-20 -267 -191.5 -428.5t-443.5 -161.5q-309 0 -495.5 209t-186.5 555z" />
<glyph unicode="&#x422;" horiz-adv-x="1214" d="M14 1237v221h1186v-221h-465v-1237h-256v1237h-465z" />
<glyph unicode="&#x423;" horiz-adv-x="1251" d="M-10 1458h282l353 -782l360 782h277l-568 -1161q-89 -181 -188.5 -256.5t-226.5 -75.5q-89 0 -173 37v215q62 -37 164 -37q65 0 110.5 52t111.5 174l2 4z" />
<glyph unicode="&#x424;" horiz-adv-x="1652" d="M70 735q0 135 51 245.5t138 181.5t199.5 111t239.5 44v141h256v-141q103 -4 196 -29.5t172.5 -74t137 -116.5t90.5 -160.5t33 -201.5q0 -111 -35.5 -205t-96 -159.5t-141 -112t-170.5 -69.5t-186 -25v-164h-256v164q-95 2 -185 25t-170.5 69.5t-141 112t-96 159.5 t-35.5 205zM326 735q0 -87 26 -151t77 -104t116 -62t153 -33v711q-372 -39 -372 -361zM954 385q88 11 153 33t116.5 62t77.5 104t26 151q0 322 -373 361v-711z" />
<glyph unicode="&#x425;" horiz-adv-x="1327" d="M-12 0l520 756l-483 702h305l332 -516l346 516h286l-483 -702l518 -756h-311l-365 557l-370 -557h-295z" />
<glyph unicode="&#x426;" horiz-adv-x="1503" d="M143 0v1458h256v-1237h668v1237h256v-1237h160v-583h-248v362h-1092z" />
<glyph unicode="&#x427;" horiz-adv-x="1402" d="M102 1042v416h256v-338q0 -34 1 -54.5t7 -55t16.5 -57t32.5 -49t53 -42.5t78.5 -26.5t108.5 -10.5q163 0 342 35v598h256v-1458h-256v639q-241 -41 -383 -41q-127 0 -223.5 31.5t-150 77.5t-86 109.5t-42.5 116.5t-10 109z" />
<glyph unicode="&#x428;" horiz-adv-x="2197" d="M150 0v1458h256v-1237h565v1237h256v-1237h565v1237h256v-1458h-1898z" />
<glyph unicode="&#x429;" horiz-adv-x="2222" d="M143 0v1458h256v-1237h566v1237h256v-1237h565v1237h256v-1237h160v-583h-248v362h-1811z" />
<glyph unicode="&#x42a;" horiz-adv-x="1665" d="M16 1237v221h695v-557h389q239 0 368 -116.5t129 -331.5q0 -217 -129.5 -335t-367.5 -118h-645v1237h-439zM711 209h379q251 0 251 237q0 115 -68 180.5t-188 65.5h-374v-483z" />
<glyph unicode="&#x42b;" horiz-adv-x="1835" d="M156 0v1458h256v-557h348q239 0 368 -116.5t129 -331.5q0 -217 -129.5 -335t-367.5 -118h-604zM412 209h338q251 0 251 237q0 115 -68 180.5t-188 65.5h-333v-483zM1430 0v1458h256v-1458h-256z" />
<glyph unicode="&#x42c;" horiz-adv-x="1366" d="M156 0v1458h256v-557h389q239 0 368 -116.5t129 -331.5q0 -217 -129.5 -335t-367.5 -118h-645zM412 209h379q251 0 251 237q0 115 -68 180.5t-188 65.5h-374v-483z" />
<glyph unicode="&#x42d;" horiz-adv-x="1478" d="M84 489h258q33 -143 122 -225t241 -82q102 0 181.5 38.5t129.5 105t78 148t36 175.5h-622v207h616q-14 86 -45 159t-81.5 132.5t-126.5 93t-169 33.5q-134 0 -228 -67t-126 -187h-256q22 116 79.5 207.5t139.5 148t180 86t207 29.5q130 0 242 -39.5t194 -109.5 t141 -165.5t88.5 -209.5t29.5 -238q0 -346 -186.5 -555t-495.5 -209q-254 0 -422 142t-205 382z" />
<glyph unicode="&#x42e;" horiz-adv-x="2084" d="M150 0v1458h256v-579h264q21 133 76 245.5t139 194.5t200 128t252 46q143 0 267 -56t212.5 -155.5t139.5 -242.5t51 -310q0 -168 -51 -311t-140.5 -242t-214 -155t-268.5 -56q-185 0 -332.5 86t-236.5 244t-102 364h-256v-659h-256zM918 733q0 -252 117 -402.5 t302 -150.5q182 0 297 151.5t115 399.5q0 250 -114 398.5t-302 148.5q-184 0 -299.5 -149.5t-115.5 -395.5z" />
<glyph unicode="&#x42f;" horiz-adv-x="1402" d="M-27 0l449 627q-75 23 -131.5 57.5t-91.5 74t-56 89.5t-29 99t-8 108q0 185 127 294t357 109h663v-1458h-256v602h-290l-414 -602h-320zM362 1032q0 -116 63.5 -175.5t186.5 -59.5h385v452h-381q-131 0 -192.5 -52t-61.5 -165z" />
<glyph unicode="&#x430;" d="M68 289q0 45 9.5 83t23.5 66.5t39.5 52.5t49 40.5t60 30.5t64 22t70.5 16t70 11.5t71 9.5q11 1 16 2q125 15 169.5 26.5t61.5 34.5q14 17 14 76q0 82 -53.5 121t-163.5 39q-114 0 -168 -43t-67 -146h-221q37 359 462 359q96 0 174 -18.5t137 -56t91.5 -100t32.5 -145.5 v-537q0 -46 11.5 -61.5t43.5 -15.5q24 0 53 4v-164q-95 -23 -151 -23q-150 0 -172 127q-133 -127 -371 -127q-164 0 -260 85t-96 231zM307 297q0 -75 50 -116.5t141 -41.5q72 0 135.5 22t103.5 62q23 23 34 58.5t12 57t1 67.5v124q-27 -15 -61.5 -25.5t-55 -14.5t-68.5 -9.5 t-60 -7.5q-30 -4 -48 -7.5t-45.5 -10t-44.5 -14.5t-36.5 -21.5t-31 -30t-19 -40t-7.5 -52.5z" />
<glyph unicode="&#x431;" horiz-adv-x="1214" d="M96 598q0 176 31.5 344t101.5 277q70 107 170.5 158.5t253.5 62.5q18 1 45 3t40 3t32.5 3t28.5 4t22 6t20 9t13.5 12t11.5 17h234q-9 -56 -28 -97t-50.5 -67.5t-63 -43t-81 -25.5t-88.5 -13t-101 -8q-13 -1 -20 -1.5t-18.5 -1t-20.5 -1.5q-146 -11 -238 -117.5 t-133 -279.5h6q67 109 157.5 163t237.5 54q100 0 188 -38.5t152.5 -108t102 -172t37.5 -224.5q0 -247 -139.5 -396t-370.5 -149q-172 0 -295 74t-184 219q-54 125 -54 334zM332 516q0 -163 79 -261.5t207 -98.5t207.5 98.5t79.5 261.5q0 162 -79.5 260t-207.5 98t-207 -97.5 t-79 -260.5z" />
<glyph unicode="&#x432;" d="M123 0v1057h584q148 0 230.5 -67.5t82.5 -190.5q0 -85 -37 -136t-115 -88v-4q99 -26 149 -95.5t50 -176.5q0 -143 -101 -221t-288 -78h-555zM356 176h322q77 0 117.5 36.5t40.5 106.5t-41 109t-117 39h-322v-291zM356 637h297q65 0 100 33t35 94t-34 89t-107 28h-291 v-244z" />
<glyph unicode="&#x433;" horiz-adv-x="872" d="M123 0v1057h739v-185h-506v-872h-233z" />
<glyph unicode="&#x434;" horiz-adv-x="1228" d="M14 184h133q125 292 125 754v119h795v-873h141v-520h-221v336h-751v-336h-222v520zM387 184h451v693h-342v-72q0 -167 -35.5 -348t-73.5 -273z" />
<glyph unicode="&#x435;" d="M70 516q0 249 144.5 410t367.5 161q232 0 366.5 -158.5t134.5 -432.5v-25h-780q5 -160 80.5 -247t210.5 -87q97 0 157 46t95 147h223q-39 -171 -168.5 -268t-310.5 -97q-239 0 -379.5 154.5t-140.5 396.5zM307 627h543q-10 133 -82 209.5t-188 76.5t-186 -73.5 t-87 -212.5z" />
<glyph unicode="&#x436;" horiz-adv-x="1593" d="M-18 0l454 606l-403 451h282l363 -447h6v447h225v-447h6l363 447h283l-404 -451l455 -606h-281l-323 459l-99 -111v-348h-225v348l-98 111l-324 -459h-280z" />
<glyph unicode="&#x437;" horiz-adv-x="1062" d="M59 330h236q25 -178 240 -178q100 0 159.5 41.5t59.5 115.5q0 73 -46.5 114.5t-160.5 41.5h-131v172h94q211 0 211 139q0 62 -47 97.5t-146 35.5q-168 0 -202 -157h-236q7 78 37.5 137.5t74 96.5t103 60t119 32t127.5 9q84 0 154.5 -15.5t127 -48.5t88 -89t31.5 -131 q0 -86 -50.5 -147.5t-119.5 -75.5v-5q84 -15 144.5 -81.5t60.5 -180.5q0 -83 -38.5 -149.5t-103 -107.5t-143.5 -63t-165 -22q-226 0 -348 95.5t-130 263.5z" />
<glyph unicode="&#x438;" horiz-adv-x="1175" d="M123 0v1057h233v-770h6l396 770h295v-1057h-234v770h-6l-395 -770h-295z" />
<glyph unicode="&#x439;" horiz-adv-x="1175" d="M123 0v1057h233v-770h6l396 770h295v-1057h-234v770h-6l-395 -770h-295zM252 1493h119q20 -80 72.5 -118t144.5 -38t144.5 38t72.5 118h119q-15 -148 -97 -218.5t-239 -70.5t-239 70.5t-97 218.5z" />
<glyph unicode="&#x43a;" horiz-adv-x="1099" d="M123 0v1057h233v-469l422 469h285l-412 -424l459 -633h-283l-331 473l-140 -145v-328h-233z" />
<glyph unicode="&#x43b;" horiz-adv-x="1175" d="M27 -2v182q20 -10 84 -10q140 0 147 262l18 625h781v-1057h-234v872h-323l-15 -462q-6 -207 -89 -321t-226 -114q-84 0 -143 23z" />
<glyph unicode="&#x43c;" horiz-adv-x="1441" d="M123 0v1057h307l295 -840h4l285 840h307v-1057h-225v702h-4l-252 -702h-236l-252 702h-4v-702h-225z" />
<glyph unicode="&#x43d;" horiz-adv-x="1175" d="M123 0v1057h233v-414h463v414h234v-1057h-234v459h-463v-459h-233z" />
<glyph unicode="&#x43e;" horiz-adv-x="1214" d="M74 528q0 255 146 407t392 152q243 0 386 -151t143 -408q0 -258 -143 -409.5t-386 -151.5q-247 0 -392.5 151.5t-145.5 409.5zM309 528q0 -178 80 -278t221 -100q138 0 216.5 101t78.5 279q0 173 -79.5 273t-217.5 100t-218.5 -101t-80.5 -274z" />
<glyph unicode="&#x43f;" horiz-adv-x="1175" d="M123 0v1057h930v-1057h-234v872h-463v-872h-233z" />
<glyph unicode="&#x440;" horiz-adv-x="1251" d="M127 -391v1448h219v-142q53 86 144.5 129t199.5 43q220 0 350.5 -153t130.5 -410q0 -251 -127.5 -401t-341.5 -150q-225 0 -344 166v-530h-231zM350 528q0 -172 79 -270t218 -98q134 0 211.5 97.5t77.5 266.5q0 172 -79 273.5t-214 101.5q-138 0 -215.5 -98.5 t-77.5 -272.5z" />
<glyph unicode="&#x441;" d="M76 518q0 261 142.5 416.5t383.5 155.5q202 0 326.5 -102.5t144.5 -285.5h-231q-20 100 -81.5 153.5t-156.5 53.5q-135 0 -213 -101t-78 -278q0 -175 75 -273.5t208 -98.5q105 0 171 62t85 179h229q-25 -195 -156 -310.5t-329 -115.5q-238 0 -379 151t-141 394z" />
<glyph unicode="&#x442;" horiz-adv-x="950" d="M10 872v185h930v-185h-348v-872h-234v872h-348z" />
<glyph unicode="&#x443;" horiz-adv-x="1062" d="M6 1057h256l283 -778l266 778h244l-391 -1037q-60 -159 -73 -189q-68 -150 -168 -201q-66 -33 -153 -33q-65 0 -161 12v196q73 -14 122 -14q22 0 41 7t33 17t27.5 28t22 33t18 39t14.5 39t13 40.5t12 36.5z" />
<glyph unicode="&#x444;" horiz-adv-x="1691" d="M74 545q0 250 112.5 396t302.5 146q66 0 135 -33t99 -75h6v479h234v-479h6q30 43 98.5 75.5t134.5 32.5q190 0 303 -146.5t113 -395.5q0 -91 -14 -173t-47 -156.5t-81.5 -128t-122 -85t-165.5 -31.5q-57 0 -122.5 30t-96.5 69h-6v-461h-234v461h-6q-31 -39 -96.5 -69 t-122.5 -30q-92 0 -165.5 31.5t-122 85t-81.5 128t-47 156.5t-14 173zM307 541q0 -79 12.5 -145.5t39 -123t75.5 -88.5t115 -32q71 0 121 34t59 82v514q-20 65 -74.5 95t-115.5 30q-116 0 -174 -95t-58 -271zM963 268q9 -48 59 -82t121 -34q66 0 114.5 32t75.5 88.5t39 123 t12 145.5q0 176 -57.5 271t-173.5 95q-61 0 -115.5 -30t-74.5 -95v-514z" />
<glyph unicode="&#x445;" horiz-adv-x="1099" d="M6 0l400 555l-367 502h283l221 -326l231 326h270l-358 -490l404 -567h-281l-268 389l-260 -389h-275z" />
<glyph unicode="&#x446;" horiz-adv-x="1208" d="M123 0v1057h233v-873h463v873h234v-873h141v-520h-225v336h-846z" />
<glyph unicode="&#x447;" horiz-adv-x="1099" d="M74 709v348h233v-266q0 -201 193 -201q57 0 133 16t119 35v416h233v-1057h-233v449q-185 -56 -344 -56t-246.5 81.5t-87.5 234.5z" />
<glyph unicode="&#x448;" horiz-adv-x="1667" d="M123 0v1057h233v-873h361v873h233v-873h361v873h233v-1057h-1421z" />
<glyph unicode="&#x449;" horiz-adv-x="1699" d="M123 0v1057h233v-873h361v873h233v-873h361v873h233v-873h142v-520h-226v336h-1337z" />
<glyph unicode="&#x44a;" horiz-adv-x="1290" d="M12 872v185h535v-383h321q172 0 266.5 -89.5t94.5 -246.5q0 -158 -94.5 -248t-264.5 -90h-557v872h-301zM547 182h297q76 0 113.5 42t37.5 110q0 71 -41 114.5t-114 43.5h-293v-310z" />
<glyph unicode="&#x44b;" horiz-adv-x="1478" d="M113 0v1057h233v-383h281q172 0 266 -89.5t94 -246.5q0 -158 -94 -248t-264 -90h-516zM346 182h256q76 0 114 42t38 110q0 71 -41.5 114.5t-114.5 43.5h-252v-310zM1133 0v1057h233v-1057h-233z" />
<glyph unicode="&#x44c;" horiz-adv-x="1099" d="M123 0v1057h233v-383h322q172 0 266 -89.5t94 -246.5q0 -158 -94 -248t-264 -90h-557zM356 182h297q76 0 114 42t38 110q0 71 -41.5 114.5t-114.5 43.5h-293v-310z" />
<glyph unicode="&#x44d;" d="M66 360h231q25 -98 89 -150t159 -52q119 0 191.5 80t86.5 223h-393v164h391q-20 135 -94 209.5t-190 74.5q-88 0 -147.5 -46t-84.5 -132h-233q28 169 150.5 264t316.5 95q241 0 383.5 -155.5t142.5 -416.5q0 -243 -141 -394t-379 -151q-187 0 -316 104t-163 283z" />
<glyph unicode="&#x44e;" horiz-adv-x="1642" d="M123 0v1057h233v-418h195q29 208 165 328t345 120q233 0 370.5 -151t137.5 -408q0 -258 -137.5 -409.5t-370.5 -151.5q-222 0 -359.5 133.5t-154.5 362.5h-191v-463h-233zM778 528q0 -179 74 -278.5t207 -99.5q130 0 202 100.5t72 279.5q0 174 -73 273.5t-203 99.5 t-204.5 -100.5t-74.5 -274.5z" />
<glyph unicode="&#x44f;" d="M-16 0l352 453q-129 41 -178 119.5t-49 191.5q0 139 90 216t258 77h559v-1057h-234v426h-198l-326 -426h-274zM342 743q0 -72 40 -109.5t116 -37.5h284v283h-282q-158 0 -158 -136z" />
<glyph unicode="&#x451;" d="M70 516q0 249 144.5 410t367.5 161q232 0 366.5 -158.5t134.5 -432.5v-25h-780q5 -160 80.5 -247t210.5 -87q97 0 157 46t95 147h223q-39 -171 -168.5 -268t-310.5 -97q-239 0 -379.5 154.5t-140.5 396.5zM252 1235v223h227v-223h-227zM307 627h543q-10 133 -82 209.5 t-188 76.5t-186 -73.5t-87 -212.5zM659 1235v223h228v-223h-228z" />
<glyph unicode="&#x452;" horiz-adv-x="1175" d="M31 883v174h106v401h234v-401h465v-174h-465v-291h4q111 168 327 168q170 0 267.5 -96t97.5 -265v-188q0 -165 -82 -302t-219.5 -215.5t-300.5 -84.5v203q170 20 269.5 129t99.5 268v129q0 237 -203 237q-115 0 -187.5 -77.5t-72.5 -200.5v-297h-234v883h-106z" />
<glyph unicode="&#x453;" horiz-adv-x="872" d="M123 0v1057h739v-185h-506v-872h-233zM283 1196l174 293h268l-274 -293h-168z" />
<glyph unicode="&#x454;" d="M76 518q0 261 142.5 416.5t383.5 155.5q194 0 316.5 -95t150.5 -264h-233q-25 86 -84.5 132t-147.5 46q-116 0 -190.5 -75t-94.5 -209h402v-164h-404q14 -143 87 -223t192 -80q95 0 159 52t89 150h231q-34 -179 -163 -283t-316 -104q-238 0 -379 151t-141 394z" />
<glyph unicode="&#x455;" horiz-adv-x="1062" d="M63 338h224q9 -101 76 -150t180 -49q103 0 165 42t62 112q0 28 -12.5 50t-29 36t-50 27t-57.5 19.5t-70 17.5q-22 5 -33 8q-184 45 -234 63q-133 48 -174 135q-24 50 -24 119q0 150 114.5 234.5t317.5 84.5q74 0 139 -12t121.5 -38t96.5 -64.5t63 -95.5t23 -127h-224 q-11 92 -69.5 130t-159.5 38q-89 0 -139 -32.5t-50 -90.5q0 -17 3 -31.5t12 -26.5t17 -20.5t26 -16.5t29.5 -13.5t38 -12t42 -10t50 -11.5t53.5 -12h1h1l1 -1h1h1h1l1 -1h1h1h1q168 -40 241 -76q158 -81 158 -246q0 -160 -124 -254t-336 -94q-224 0 -345.5 94t-130.5 275z " />
<glyph unicode="&#x456;" horiz-adv-x="493" d="M129 0v1057h233v-1057h-233zM129 1235v229h233v-229h-233z" />
<glyph unicode="&#x457;" horiz-adv-x="493" d="M-72 1235v223h230v-223h-230zM129 0v1057h233v-1057h-233zM336 1235v223h229v-223h-229z" />
<glyph unicode="&#x458;" horiz-adv-x="493" d="M-39 -209q54 -4 55 -4q66 0 93.5 18t27.5 78v1174h234v-1112q0 -186 -68.5 -268.5t-243.5 -82.5q-19 0 -98 7v190zM137 1235v231h234v-231h-234z" />
<glyph unicode="&#x459;" horiz-adv-x="1673" d="M20 -2v182q20 -10 84 -10q141 0 148 262l18 625h734v-404h247q173 0 267 -85t94 -240q0 -157 -93.5 -242.5t-265.5 -85.5h-483v872h-276l-15 -462q-6 -207 -89 -321t-226 -114q-85 0 -144 23zM1004 182h223q77 0 114 37.5t37 104.5q0 70 -40.5 108.5t-114.5 38.5h-219 v-289z" />
<glyph unicode="&#x45a;" horiz-adv-x="1673" d="M123 0v1057h233v-402h402v402h233v-404h260q173 0 267 -85t94 -240q0 -157 -93.5 -242.5t-265.5 -85.5h-495v471h-402v-471h-233zM991 182h236q77 0 114 37.5t37 104.5q0 70 -40.5 108.5t-114.5 38.5h-232v-289z" />
<glyph unicode="&#x45b;" horiz-adv-x="1175" d="M31 883v174h106v401h234v-401h465v-174h-465v-291h4q111 168 327 168q170 0 267.5 -96t97.5 -265v-399h-233v338q0 237 -203 237q-115 0 -187.5 -77.5t-72.5 -200.5v-297h-234v883h-106z" />
<glyph unicode="&#x45c;" horiz-adv-x="1099" d="M123 0v1057h233v-469l422 469h285l-412 -424l459 -633h-283l-331 473l-140 -145v-328h-233zM412 1196l174 293h268l-274 -293h-168z" />
<glyph unicode="&#x45e;" horiz-adv-x="1062" d="M6 1057h256l283 -778l266 778h244l-391 -1037q-60 -160 -71 -183q-67 -151 -165 -204q-67 -36 -158 -36q-65 0 -161 12v196q73 -14 122 -14q22 0 41 7t33 17t27.5 28t22 33t18 39t14.5 39t13 40.5t12 36.5zM207 1493h119q20 -80 72.5 -118t144.5 -38t144.5 38t72.5 118 h119q-15 -148 -97 -218.5t-239 -70.5t-239 70.5t-97 218.5z" />
<glyph unicode="&#x45f;" horiz-adv-x="1175" d="M123 0v1057h233v-873h463v873h234v-1057h-351v-336h-233v336h-346z" />
<glyph unicode="&#x490;" horiz-adv-x="1153" d="M156 0v1458h733v322h256v-543h-733v-1237h-256z" />
<glyph unicode="&#x491;" horiz-adv-x="872" d="M123 0v1057h510v315h233v-500h-510v-872h-233z" />
<glyph unicode="&#x2000;" horiz-adv-x="921" />
<glyph unicode="&#x2001;" horiz-adv-x="1843" />
<glyph unicode="&#x2002;" horiz-adv-x="921" />
<glyph unicode="&#x2003;" horiz-adv-x="1843" />
<glyph unicode="&#x2004;" horiz-adv-x="614" />
<glyph unicode="&#x2005;" horiz-adv-x="460" />
<glyph unicode="&#x2006;" horiz-adv-x="307" />
<glyph unicode="&#x2007;" horiz-adv-x="307" />
<glyph unicode="&#x2008;" horiz-adv-x="230" />
<glyph unicode="&#x2009;" horiz-adv-x="368" />
<glyph unicode="&#x200a;" horiz-adv-x="102" />
<glyph unicode="&#x2010;" horiz-adv-x="796" d="M98 455v217h600v-217h-600z" />
<glyph unicode="&#x2011;" horiz-adv-x="796" d="M98 455v217h600v-217h-600z" />
<glyph unicode="&#x2012;" horiz-adv-x="796" d="M98 455v217h600v-217h-600z" />
<glyph unicode="&#x2013;" horiz-adv-x="1024" d="M0 457v213h1024v-213h-1024z" />
<glyph unicode="&#x2014;" horiz-adv-x="2048" d="M0 457v213h2048v-213h-2048z" />
<glyph unicode="&#x2018;" horiz-adv-x="569" d="M137 895v225q0 316 281 365v-121q-127 -41 -133 -199h133v-270h-281z" />
<glyph unicode="&#x2019;" horiz-adv-x="569" d="M150 868v121q127 41 133 199h-133v270h280v-225q0 -316 -280 -365z" />
<glyph unicode="&#x201a;" horiz-adv-x="569" d="M158 0v262h256v-205q0 -318 -256 -374v114q65 26 94.5 73.5t32.5 129.5h-127z" />
<glyph unicode="&#x201c;" horiz-adv-x="909" d="M121 903v252q0 128 75.5 217.5t182.5 110.5v-117q-68 -25 -96.5 -75t-28.5 -126h125v-262h-258zM524 903v252q0 128 75.5 217.5t182.5 110.5v-117q-68 -25 -96.5 -75t-28.5 -126h125v-262h-258z" />
<glyph unicode="&#x201d;" horiz-adv-x="909" d="M123 879v116q68 25 96.5 75t28.5 126h-125v262h258v-252q0 -128 -75.5 -217t-182.5 -110zM526 879v116q68 25 96.5 75t28.5 126h-125v262h258v-252q0 -128 -75.5 -217t-182.5 -110z" />
<glyph unicode="&#x201e;" horiz-adv-x="909" d="M125 0v262h258v-252q0 -128 -75.5 -217t-182.5 -110v116q68 25 96.5 75t28.5 126h-125zM528 0v262h258v-252q0 -128 -75.5 -217t-182.5 -110v116q68 25 96.5 75t28.5 126h-125z" />
<glyph unicode="&#x2020;" d="M68 848v199h387v411h225v-411h391v-199h-391v-1176h-225v1176h-387z" />
<glyph unicode="&#x2021;" d="M68 70v196h389v598h-389v197h389v397h221v-397h393v-197h-393v-598h393v-196h-393v-396h-221v396h-389z" />
<glyph unicode="&#x2022;" horiz-adv-x="1024" d="M147 729q0 151 107 258t258 107t258 -107t107 -258t-107 -257.5t-258 -106.5t-258 106.5t-107 257.5z" />
<glyph unicode="&#x2026;" horiz-adv-x="2048" d="M221 0v266h240v-266h-240zM903 0v266h240v-266h-240zM1585 0v266h242v-266h-242z" />
<glyph unicode="&#x202f;" horiz-adv-x="368" />
<glyph unicode="&#x2030;" horiz-adv-x="2351" d="M162 1096q0 170 77 261t222 91t221 -88.5t76 -257.5q0 -167 -79 -259.5t-222 -92.5t-219 89t-76 257zM266 -63l932 1548h148l-928 -1548h-152zM328 1090q0 -216 131 -216t131 226q0 225 -131 225t-131 -235zM885 319q0 173 76.5 263t224.5 90q141 0 218 -88t77 -250 q0 -174 -76 -266.5t-219 -92.5q-149 0 -225 87t-76 257zM1051 319q0 -115 32 -168t103 -53q127 0 127 232q0 221 -129 221q-133 0 -133 -232zM1593 319q0 172 76.5 263.5t222.5 91.5q145 0 221 -88t76 -254q0 -172 -77 -264.5t-220 -92.5q-147 0 -223 87.5t-76 256.5z M1757 319q0 -109 34.5 -165t100.5 -56q129 0 129 230q0 223 -131 223q-133 0 -133 -232z" />
<glyph unicode="&#x2039;" horiz-adv-x="530" d="M88 430v223l315 248v-211l-192 -147l192 -152v-213z" />
<glyph unicode="&#x203a;" horiz-adv-x="530" d="M125 182v209l194 148l-194 151v213l315 -250v-227z" />
<glyph unicode="&#x205f;" horiz-adv-x="460" />
<glyph unicode="&#x2116;" horiz-adv-x="2187" d="M145 0v1425h271l610 -1040v1040h244v-1425h-271l-610 1038v-1038h-244zM1389 565q0 151 87.5 235.5t245.5 84.5q156 0 245 -84.5t89 -229.5q0 -155 -86.5 -239t-247.5 -84q-159 0 -246 83t-87 234zM1391 0v174h665v-174h-665zM1567 565q0 -84 43.5 -134t111.5 -50 q66 0 111 51t45 133q0 83 -45 135t-111 52q-67 0 -111 -51t-44 -136z" />
<glyph unicode="&#x2122;" horiz-adv-x="2027" d="M211 1346v112h612v-112h-233v-617h-144v617h-235zM942 729v729h215l184 -514l183 514h211v-729h-129v600l-211 -600h-111l-211 600v-600h-131z" />
<glyph unicode="&#x2206;" horiz-adv-x="1396" d="M20 0l560 1425h213l583 -1425h-1356zM301 186h784l-401 1010z" />
<glyph unicode="&#x221a;" horiz-adv-x="1228" d="M20 338l279 129l281 -592l354 1735h211l-434 -2048h-195l-319 659l-101 -47z" />
<glyph unicode="&#x221e;" horiz-adv-x="1630" d="M90 526q0 155 91.5 254t236.5 99q63 0 119 -18.5t108 -58t86.5 -73t85.5 -90.5q48 55 83 89.5t86 74t107 59t117 19.5q146 0 238 -98t92 -253q0 -159 -91.5 -257.5t-238.5 -98.5q-113 0 -205.5 61t-187.5 166q-18 -16 -58 -54t-59 -55t-56 -44t-65.5 -39.5t-69.5 -22.5 t-85 -10q-148 0 -241 97.5t-93 252.5zM258 524q0 -77 45.5 -123.5t120.5 -46.5q40 0 79.5 14t78.5 42.5t64.5 51.5t62.5 60q-98 96 -165.5 137t-127.5 41q-68 0 -113 -50t-45 -126zM924 522q161 -170 288 -170q72 0 117 48t45 124q0 79 -46 128.5t-120 49.5 q-114 0 -284 -180z" />
<glyph unicode="&#x2248;" horiz-adv-x="1228" d="M68 154q6 66 25.5 123.5t53 106.5t87.5 77t124 28q20 0 44.5 -3.5t44 -8t51 -13.5t46 -13.5t49.5 -16.5t42 -14q21 -7 65.5 -22t60 -20t44 -13t48.5 -10.5t42 -2.5q52 0 86.5 36t46.5 104h133q-17 -162 -92.5 -248t-200.5 -86q-71 0 -274 65q-14 5 -59.5 22t-73.5 26.5 t-64.5 18.5t-58.5 9q-53 0 -90.5 -39.5t-46.5 -105.5h-133zM68 561q6 66 25.5 123.5t53 106.5t87.5 77.5t124 28.5q23 0 50 -4t62 -13.5t53.5 -15t61.5 -20.5t50 -17q19 -6 56 -18.5t51 -17.5t40 -12.5t41 -10.5t34.5 -5.5t37.5 -2.5q53 0 87 36t46 103h133 q-17 -162 -92.5 -248t-200.5 -86q-16 0 -34.5 2t-42 7t-38.5 8.5t-44.5 12.5t-38.5 11.5t-41.5 13t-34.5 11.5q-14 5 -59.5 22t-73.5 26.5t-64.5 18.5t-58.5 9q-53 0 -90.5 -40t-46.5 -106h-133z" />
<glyph unicode="&#x2260;" horiz-adv-x="1228" d="M84 209v197h358l125 243h-483v195h584l157 311l172 -88l-114 -223h260v-195h-361l-125 -243h486v-197h-586l-158 -309l-172 88l115 221h-258z" />
<glyph unicode="&#x2264;" horiz-adv-x="1228" d="M78 -70v197h1059v-197h-1059zM78 555v199l1059 370v-206l-791 -263l791 -252v-206z" />
<glyph unicode="&#x2265;" horiz-adv-x="1228" d="M92 -70v197h1059v-197h-1059zM92 197v206l791 252l-791 263v206l1059 -370v-199z" />
<glyph unicode="&#xe000;" horiz-adv-x="1054" d="M0 0v1055h1055v-1055h-1055z" />
<glyph unicode="&#xe001;" horiz-adv-x="569" />
</font>
</defs>
</svg>
